<svg width="1920" height="1080" viewBox="0 0 1920 1080" fill="none" xmlns="http://www.w3.org/2000/svg" xmlns:xlink="http://www.w3.org/1999/xlink">
<rect width="1920" height="1203.7" fill="url(#pattern0_1_567)" fill-opacity="0.5"/>
<defs>
<pattern id="pattern0_1_567" patternUnits="userSpaceOnUse" patternTransform="matrix(262.587 0 0 125.041 0 0)" preserveAspectRatio="none" viewBox="0 0 231 110" width="1" height="1">
<use xlink:href="#pattern0_1_567_inner" transform="translate(-231 0)"/>
<g id="pattern0_1_567_inner">
<rect width="231" height="55" fill="#111224"/>
<g style="mix-blend-mode:overlay">
<mask id="path-2-inside-1_1_567" fill="white">
<path d="M31.7504 32.6195L32.452 40.4933C30.4511 41.2988 27.9824 41.7016 25.046 41.7016C22.2655 41.7016 19.9657 41.4028 18.1467 40.8051C16.3276 40.1814 14.8854 39.2459 13.82 37.9986C12.7545 36.7513 12.0009 35.1661 11.5592 33.2431C11.1434 31.3202 10.9355 29.0464 10.9355 26.4218C10.9355 23.8751 11.1304 21.6533 11.5202 19.7563C11.936 17.8334 12.6636 16.2352 13.703 14.9619C14.7425 13.6626 16.1457 12.6881 17.9128 12.0384C19.7058 11.3888 21.9666 11.064 24.6952 11.064C25.2928 11.064 25.9555 11.1029 26.6831 11.1809C27.4367 11.2329 28.1643 11.3108 28.8659 11.4148C29.5936 11.5187 30.2692 11.6487 30.8929 11.8046C31.5425 11.9345 32.0622 12.0904 32.452 12.2723L31.0488 19.4445C28.9699 19.0027 27.1119 18.7818 25.4747 18.7818C23.7856 18.7818 22.6163 18.9378 21.9666 19.2496C21.317 19.5614 20.9921 20.1851 20.9921 21.1206V33.3601C21.5898 33.49 22.1875 33.5939 22.7852 33.6719C23.4089 33.7239 24.0455 33.7499 24.6952 33.7499C27.2938 33.7499 29.6455 33.3731 31.7504 32.6195ZM56.526 11.7656V19.2496H49.7436V41H40.3886V19.2496H33.6062V11.7656H56.526ZM79.5085 31.2552L84.5758 41H74.2852L70.4653 32.3076H68.4384V41H59.0834V11.7656H73.8175C80.5219 11.7656 83.8741 15.1828 83.8741 22.0171C83.8741 26.6946 82.4189 29.774 79.5085 31.2552ZM70.5822 19.2496H68.4384V25.0965H70.5822C71.7256 25.0965 72.5442 24.9795 73.0379 24.7457C73.5576 24.5118 73.8175 23.9791 73.8175 23.1475V21.1986C73.8175 20.367 73.5576 19.8343 73.0379 19.6004C72.5442 19.3665 71.7256 19.2496 70.5822 19.2496ZM106.571 33.516V41H87.861V11.7656H97.216V33.516H106.571ZM119.079 23.4594H123.172V29.3062H119.079V33.3991H113.232V29.3062H109.14V23.4594H113.232V19.3665H119.079V23.4594ZM148.683 11.7656V19.2496H141.9V41H132.545V19.2496H125.763V11.7656H148.683ZM160.595 41H151.24V11.7656H160.595V41ZM174.447 26.8116L173.901 41H164.117L165.91 11.7656H178.111L181.736 26.6556H182.087L185.712 11.7656H197.951L199.705 41H189.921L189.376 26.8116H189.064L185.478 41H178.345L174.719 26.8116H174.447Z"/>
</mask>
<path d="M31.7504 32.6195L32.452 40.4933C30.4511 41.2988 27.9824 41.7016 25.046 41.7016C22.2655 41.7016 19.9657 41.4028 18.1467 40.8051C16.3276 40.1814 14.8854 39.2459 13.82 37.9986C12.7545 36.7513 12.0009 35.1661 11.5592 33.2431C11.1434 31.3202 10.9355 29.0464 10.9355 26.4218C10.9355 23.8751 11.1304 21.6533 11.5202 19.7563C11.936 17.8334 12.6636 16.2352 13.703 14.9619C14.7425 13.6626 16.1457 12.6881 17.9128 12.0384C19.7058 11.3888 21.9666 11.064 24.6952 11.064C25.2928 11.064 25.9555 11.1029 26.6831 11.1809C27.4367 11.2329 28.1643 11.3108 28.8659 11.4148C29.5936 11.5187 30.2692 11.6487 30.8929 11.8046C31.5425 11.9345 32.0622 12.0904 32.452 12.2723L31.0488 19.4445C28.9699 19.0027 27.1119 18.7818 25.4747 18.7818C23.7856 18.7818 22.6163 18.9378 21.9666 19.2496C21.317 19.5614 20.9921 20.1851 20.9921 21.1206V33.3601C21.5898 33.49 22.1875 33.5939 22.7852 33.6719C23.4089 33.7239 24.0455 33.7499 24.6952 33.7499C27.2938 33.7499 29.6455 33.3731 31.7504 32.6195ZM56.526 11.7656V19.2496H49.7436V41H40.3886V19.2496H33.6062V11.7656H56.526ZM79.5085 31.2552L84.5758 41H74.2852L70.4653 32.3076H68.4384V41H59.0834V11.7656H73.8175C80.5219 11.7656 83.8741 15.1828 83.8741 22.0171C83.8741 26.6946 82.4189 29.774 79.5085 31.2552ZM70.5822 19.2496H68.4384V25.0965H70.5822C71.7256 25.0965 72.5442 24.9795 73.0379 24.7457C73.5576 24.5118 73.8175 23.9791 73.8175 23.1475V21.1986C73.8175 20.367 73.5576 19.8343 73.0379 19.6004C72.5442 19.3665 71.7256 19.2496 70.5822 19.2496ZM106.571 33.516V41H87.861V11.7656H97.216V33.516H106.571ZM119.079 23.4594H123.172V29.3062H119.079V33.3991H113.232V29.3062H109.14V23.4594H113.232V19.3665H119.079V23.4594ZM148.683 11.7656V19.2496H141.9V41H132.545V19.2496H125.763V11.7656H148.683ZM160.595 41H151.24V11.7656H160.595V41ZM174.447 26.8116L173.901 41H164.117L165.91 11.7656H178.111L181.736 26.6556H182.087L185.712 11.7656H197.951L199.705 41H189.921L189.376 26.8116H189.064L185.478 41H178.345L174.719 26.8116H174.447Z" fill="url(#paint0_linear_1_567)"/>
<path d="M31.7504 32.6195L32.7465 32.5307L32.6316 31.2418L31.4133 31.678L31.7504 32.6195ZM32.452 40.4933L32.8255 41.4209L33.514 41.1437L33.4481 40.4045L32.452 40.4933ZM18.1467 40.8051L17.8223 41.7511L17.8345 41.7551L18.1467 40.8051ZM13.82 37.9986L14.5803 37.3491L13.82 37.9986ZM11.5592 33.2431L10.5817 33.4545L10.5846 33.467L11.5592 33.2431ZM11.5202 19.7563L10.5427 19.545L10.5407 19.5551L11.5202 19.7563ZM13.703 14.9619L14.4777 15.5943L14.4839 15.5866L13.703 14.9619ZM17.9128 12.0384L17.5721 11.0982L17.5677 11.0999L17.9128 12.0384ZM26.6831 11.1809L26.5766 12.1752L26.5954 12.1772L26.6143 12.1785L26.6831 11.1809ZM28.8659 11.4148L28.7194 12.404L28.7245 12.4047L28.8659 11.4148ZM30.8929 11.8046L30.6503 12.7747L30.6734 12.7805L30.6967 12.7851L30.8929 11.8046ZM32.452 12.2723L33.4334 12.4643L33.5836 11.6968L32.8749 11.3661L32.452 12.2723ZM31.0488 19.4445L30.8409 20.4227L31.835 20.6339L32.0302 19.6365L31.0488 19.4445ZM20.9921 33.3601H19.9921V34.166L20.7797 34.3372L20.9921 33.3601ZM22.7852 33.6719L22.6558 34.6635L22.6789 34.6665L22.7021 34.6685L22.7852 33.6719ZM31.7504 32.6195L30.7543 32.7082L31.456 40.582L32.452 40.4933L33.4481 40.4045L32.7465 32.5307L31.7504 32.6195ZM32.452 40.4933L32.0786 39.5656C30.2308 40.3095 27.8978 40.7016 25.046 40.7016V41.7016V42.7016C28.0671 42.7016 30.6714 42.2882 32.8255 41.4209L32.452 40.4933ZM25.046 41.7016V40.7016C22.328 40.7016 20.1427 40.4084 18.4588 39.8551L18.1467 40.8051L17.8345 41.7551C19.7886 42.3972 22.2029 42.7016 25.046 42.7016V41.7016ZM18.1467 40.8051L18.471 39.8592C16.7918 39.2834 15.5109 38.4385 14.5803 37.3491L13.82 37.9986L13.0596 38.6481C14.2599 40.0533 15.8635 41.0794 17.8223 41.751L18.1467 40.8051ZM13.82 37.9986L14.5803 37.3491C13.6388 36.2468 12.9467 34.8168 12.5338 33.0192L11.5592 33.2431L10.5846 33.467C11.0551 35.5155 11.8703 37.2557 13.0596 38.6481L13.82 37.9986ZM11.5592 33.2431L12.5366 33.0318C12.1398 31.1969 11.9355 28.9973 11.9355 26.4218H10.9355H9.9355C9.9355 29.0954 10.1469 31.4434 10.5818 33.4545L11.5592 33.2431ZM10.9355 26.4218H11.9355C11.9355 23.9229 12.127 21.7714 12.4997 19.9576L11.5202 19.7563L10.5407 19.5551C10.1338 21.5352 9.9355 23.8273 9.9355 26.4218H10.9355ZM11.5202 19.7563L12.4976 19.9677C12.8865 18.1689 13.556 16.7234 14.4777 15.5943L13.703 14.9619L12.9284 14.3295C11.7712 15.747 10.9854 17.4978 10.5428 19.545L11.5202 19.7563ZM13.703 14.9619L14.4839 15.5866C15.395 14.4477 16.6389 13.5722 18.2578 12.977L17.9128 12.0384L17.5677 11.0999C15.6525 11.804 14.0899 12.8775 12.9222 14.3372L13.703 14.9619ZM17.9128 12.0384L18.2534 12.9786C19.9012 12.3816 22.037 12.064 24.6952 12.064V11.064V10.064C21.8963 10.064 19.5105 10.396 17.5721 11.0983L17.9128 12.0384ZM24.6952 11.064V12.064C25.2504 12.064 25.8768 12.1002 26.5766 12.1752L26.6831 11.1809L26.7896 10.1866C26.0342 10.1056 25.3353 10.064 24.6952 10.064V11.064ZM26.6831 11.1809L26.6143 12.1785C27.3435 12.2288 28.0452 12.3041 28.7194 12.404L28.8659 11.4148L29.0125 10.4256C28.2835 10.3176 27.5299 10.2369 26.7519 10.1833L26.6831 11.1809ZM28.8659 11.4148L28.7245 12.4047C29.4228 12.5045 30.0643 12.6282 30.6503 12.7747L30.8929 11.8046L31.1354 10.8344C30.4741 10.6691 29.7643 10.533 29.0074 10.4248L28.8659 11.4148ZM30.8929 11.8046L30.6967 12.7851C31.3053 12.9069 31.7395 13.0433 32.0291 13.1785L32.452 12.2723L32.8749 11.3661C32.385 11.1375 31.7797 10.9621 31.089 10.824L30.8929 11.8046ZM32.452 12.2723L31.4706 12.0803L30.0674 19.2525L31.0488 19.4445L32.0302 19.6365L33.4334 12.4643L32.452 12.2723ZM31.0488 19.4445L31.2566 18.4663C29.1284 18.0141 27.1988 17.7818 25.4747 17.7818V18.7818V19.7818C27.0249 19.7818 28.8113 19.9914 30.8409 20.4227L31.0488 19.4445ZM25.4747 18.7818V17.7818C23.7854 17.7818 22.4084 17.9283 21.5339 18.3481L21.9666 19.2496L22.3994 20.1511C22.8242 19.9472 23.7859 19.7818 25.4747 19.7818V18.7818ZM21.9666 19.2496L21.5339 18.3481C20.4294 18.8782 19.9921 19.937 19.9921 21.1206H20.9921H21.9921C21.9921 20.4332 22.2045 20.2447 22.3994 20.1511L21.9666 19.2496ZM20.9921 21.1206H19.9921V33.3601H20.9921H21.9921V21.1206H20.9921ZM20.9921 33.3601L20.7797 34.3372C21.4045 34.4731 22.0299 34.5819 22.6558 34.6635L22.7852 33.6719L22.9145 32.6803C22.3451 32.606 21.7752 32.5069 21.2046 32.3829L20.9921 33.3601ZM22.7852 33.6719L22.7021 34.6685C23.3545 34.7228 24.0188 34.7499 24.6952 34.7499V33.7499V32.7499C24.0722 32.7499 23.4633 32.7249 22.8682 32.6754L22.7852 33.6719ZM24.6952 33.7499V34.7499C27.3904 34.7499 29.8585 34.359 32.0875 33.5609L31.7504 32.6195L31.4133 31.678C29.4326 32.3871 27.1972 32.7499 24.6952 32.7499V33.7499ZM56.526 11.7656H57.526V10.7656H56.526V11.7656ZM56.526 19.2496V20.2496H57.526V19.2496H56.526ZM49.7436 19.2496V18.2496H48.7436V19.2496H49.7436ZM49.7436 41V42H50.7436V41H49.7436ZM40.3886 41H39.3886V42H40.3886V41ZM40.3886 19.2496H41.3886V18.2496H40.3886V19.2496ZM33.6062 19.2496H32.6062V20.2496H33.6062V19.2496ZM33.6062 11.7656V10.7656H32.6062V11.7656H33.6062ZM56.526 11.7656H55.526V19.2496H56.526H57.526V11.7656H56.526ZM56.526 19.2496V18.2496H49.7436V19.2496V20.2496H56.526V19.2496ZM49.7436 19.2496H48.7436V41H49.7436H50.7436V19.2496H49.7436ZM49.7436 41V40H40.3886V41V42H49.7436V41ZM40.3886 41H41.3886V19.2496H40.3886H39.3886V41H40.3886ZM40.3886 19.2496V18.2496H33.6062V19.2496V20.2496H40.3886V19.2496ZM33.6062 19.2496H34.6062V11.7656H33.6062H32.6062V19.2496H33.6062ZM33.6062 11.7656V12.7656H56.526V11.7656V10.7656H33.6062V11.7656ZM79.5085 31.2552L79.0549 30.364L78.1558 30.8215L78.6212 31.7165L79.5085 31.2552ZM84.5758 41V42H86.2229L85.463 40.5386L84.5758 41ZM74.2852 41L73.3698 41.4023L73.6324 42H74.2852V41ZM70.4653 32.3076L71.3808 31.9053L71.1181 31.3076H70.4653V32.3076ZM68.4384 32.3076V31.3076H67.4384V32.3076H68.4384ZM68.4384 41V42H69.4384V41H68.4384ZM59.0834 41H58.0834V42H59.0834V41ZM59.0834 11.7656V10.7656H58.0834V11.7656H59.0834ZM68.4384 19.2496V18.2496H67.4384V19.2496H68.4384ZM68.4384 25.0965H67.4384V26.0965H68.4384V25.0965ZM73.0379 24.7457L72.6275 23.8337L72.6186 23.8378L72.6098 23.8419L73.0379 24.7457ZM73.0379 19.6004L72.6098 20.5041L72.6186 20.5083L72.6275 20.5123L73.0379 19.6004ZM79.5085 31.2552L78.6212 31.7165L83.6885 41.4614L84.5758 41L85.463 40.5386L80.3957 30.7938L79.5085 31.2552ZM84.5758 41V40H74.2852V41V42H84.5758V41ZM74.2852 41L75.2007 40.5977L71.3808 31.9053L70.4653 32.3076L69.5498 32.71L73.3698 41.4023L74.2852 41ZM70.4653 32.3076V31.3076H68.4384V32.3076V33.3076H70.4653V32.3076ZM68.4384 32.3076H67.4384V41H68.4384H69.4384V32.3076H68.4384ZM68.4384 41V40H59.0834V41V42H68.4384V41ZM59.0834 41H60.0834V11.7656H59.0834H58.0834V41H59.0834ZM59.0834 11.7656V12.7656H73.8175V11.7656V10.7656H59.0834V11.7656ZM73.8175 11.7656V12.7656C77.0107 12.7656 79.2229 13.578 80.6461 15.0288C82.0728 16.4831 82.8741 18.7493 82.8741 22.0171H83.8741H84.8741C84.8741 18.4506 83.9994 15.5911 82.0738 13.6282C80.1448 11.6618 77.3288 10.7656 73.8175 10.7656V11.7656ZM83.8741 22.0171H82.8741C82.8741 26.5029 81.4924 29.1234 79.0549 30.364L79.5085 31.2552L79.962 32.1464C83.3454 30.4245 84.8741 26.8864 84.8741 22.0171H83.8741ZM70.5822 19.2496V18.2496H68.4384V19.2496V20.2496H70.5822V19.2496ZM68.4384 19.2496H67.4384V25.0965H68.4384H69.4384V19.2496H68.4384ZM68.4384 25.0965V26.0965H70.5822V25.0965V24.0965H68.4384V25.0965ZM70.5822 25.0965V26.0965C71.7463 26.0965 72.7579 25.9848 73.466 25.6494L73.0379 24.7457L72.6098 23.8419C72.3305 23.9743 71.7049 24.0965 70.5822 24.0965V25.0965ZM73.0379 24.7457L73.4483 25.6576C74.4842 25.1914 74.8175 24.1646 74.8175 23.1475H73.8175H72.8175C72.8175 23.4687 72.7659 23.6461 72.7238 23.7323C72.6919 23.7977 72.6652 23.8168 72.6275 23.8337L73.0379 24.7457ZM73.8175 23.1475H74.8175V21.1986H73.8175H72.8175V23.1475H73.8175ZM73.8175 21.1986H74.8175C74.8175 20.1815 74.4842 19.1547 73.4483 18.6885L73.0379 19.6004L72.6275 20.5123C72.6652 20.5293 72.6919 20.5484 72.7238 20.6138C72.7659 20.7 72.8175 20.8773 72.8175 21.1986H73.8175ZM73.0379 19.6004L73.466 18.6967C72.7579 18.3612 71.7463 18.2496 70.5822 18.2496V19.2496V20.2496C71.7049 20.2496 72.3305 20.3718 72.6098 20.5041L73.0379 19.6004ZM106.571 33.516H107.571V32.516H106.571V33.516ZM106.571 41V42H107.571V41H106.571ZM87.861 41H86.861V42H87.861V41ZM87.861 11.7656V10.7656H86.861V11.7656H87.861ZM97.216 11.7656H98.216V10.7656H97.216V11.7656ZM97.216 33.516H96.216V34.516H97.216V33.516ZM106.571 33.516H105.571V41H106.571H107.571V33.516H106.571ZM106.571 41V40H87.861V41V42H106.571V41ZM87.861 41H88.861V11.7656H87.861H86.861V41H87.861ZM87.861 11.7656V12.7656H97.216V11.7656V10.7656H87.861V11.7656ZM97.216 11.7656H96.216V33.516H97.216H98.216V11.7656H97.216ZM97.216 33.516V34.516H106.571V33.516V32.516H97.216V33.516ZM119.079 23.4594H118.079V24.4594H119.079V23.4594ZM123.172 23.4594H124.172V22.4594H123.172V23.4594ZM123.172 29.3062V30.3062H124.172V29.3062H123.172ZM119.079 29.3062V28.3062H118.079V29.3062H119.079ZM119.079 33.3991V34.3991H120.079V33.3991H119.079ZM113.232 33.3991H112.232V34.3991H113.232V33.3991ZM113.232 29.3062H114.232V28.3062H113.232V29.3062ZM109.14 29.3062H108.14V30.3062H109.14V29.3062ZM109.14 23.4594V22.4594H108.14V23.4594H109.14ZM113.232 23.4594V24.4594H114.232V23.4594H113.232ZM113.232 19.3665V18.3665H112.232V19.3665H113.232ZM119.079 19.3665H120.079V18.3665H119.079V19.3665ZM119.079 23.4594V24.4594H123.172V23.4594V22.4594H119.079V23.4594ZM123.172 23.4594H122.172V29.3062H123.172H124.172V23.4594H123.172ZM123.172 29.3062V28.3062H119.079V29.3062V30.3062H123.172V29.3062ZM119.079 29.3062H118.079V33.3991H119.079H120.079V29.3062H119.079ZM119.079 33.3991V32.3991H113.232V33.3991V34.3991H119.079V33.3991ZM113.232 33.3991H114.232V29.3062H113.232H112.232V33.3991H113.232ZM113.232 29.3062V28.3062H109.14V29.3062V30.3062H113.232V29.3062ZM109.14 29.3062H110.14V23.4594H109.14H108.14V29.3062H109.14ZM109.14 23.4594V24.4594H113.232V23.4594V22.4594H109.14V23.4594ZM113.232 23.4594H114.232V19.3665H113.232H112.232V23.4594H113.232ZM113.232 19.3665V20.3665H119.079V19.3665V18.3665H113.232V19.3665ZM119.079 19.3665H118.079V23.4594H119.079H120.079V19.3665H119.079ZM148.683 11.7656H149.683V10.7656H148.683V11.7656ZM148.683 19.2496V20.2496H149.683V19.2496H148.683ZM141.9 19.2496V18.2496H140.9V19.2496H141.9ZM141.9 41V42H142.9V41H141.9ZM132.545 41H131.545V42H132.545V41ZM132.545 19.2496H133.545V18.2496H132.545V19.2496ZM125.763 19.2496H124.763V20.2496H125.763V19.2496ZM125.763 11.7656V10.7656H124.763V11.7656H125.763ZM148.683 11.7656H147.683V19.2496H148.683H149.683V11.7656H148.683ZM148.683 19.2496V18.2496H141.9V19.2496V20.2496H148.683V19.2496ZM141.9 19.2496H140.9V41H141.9H142.9V19.2496H141.9ZM141.9 41V40H132.545V41V42H141.9V41ZM132.545 41H133.545V19.2496H132.545H131.545V41H132.545ZM132.545 19.2496V18.2496H125.763V19.2496V20.2496H132.545V19.2496ZM125.763 19.2496H126.763V11.7656H125.763H124.763V19.2496H125.763ZM125.763 11.7656V12.7656H148.683V11.7656V10.7656H125.763V11.7656ZM160.595 41V42H161.595V41H160.595ZM151.24 41H150.24V42H151.24V41ZM151.24 11.7656V10.7656H150.24V11.7656H151.24ZM160.595 11.7656H161.595V10.7656H160.595V11.7656ZM160.595 41V40H151.24V41V42H160.595V41ZM151.24 41H152.24V11.7656H151.24H150.24V41H151.24ZM151.24 11.7656V12.7656H160.595V11.7656V10.7656H151.24V11.7656ZM160.595 11.7656H159.595V41H160.595H161.595V11.7656H160.595ZM174.447 26.8116V25.8116H173.484L173.447 26.7731L174.447 26.8116ZM173.901 41V42H174.863L174.9 41.0384L173.901 41ZM164.117 41L163.119 40.9388L163.054 42H164.117V41ZM165.91 11.7656V10.7656H164.97L164.912 11.7044L165.91 11.7656ZM178.111 11.7656L179.082 11.529L178.896 10.7656H178.111V11.7656ZM181.736 26.6556L180.764 26.8922L180.95 27.6556H181.736V26.6556ZM182.087 26.6556V27.6556H182.872L183.058 26.8922L182.087 26.6556ZM185.712 11.7656V10.7656H184.926L184.74 11.529L185.712 11.7656ZM197.951 11.7656L198.949 11.7057L198.893 10.7656H197.951V11.7656ZM199.705 41V42H200.767L200.703 40.9401L199.705 41ZM189.921 41L188.922 41.0384L188.959 42H189.921V41ZM189.376 26.8116L190.375 26.7731L190.338 25.8116H189.376V26.8116ZM189.064 26.8116V25.8116H188.285L188.094 26.5665L189.064 26.8116ZM185.478 41V42H186.256L186.447 41.245L185.478 41ZM178.345 41L177.376 41.2475L177.568 42H178.345V41ZM174.719 26.8116L175.688 26.564L175.496 25.8116H174.719V26.8116ZM174.447 26.8116L173.447 26.7731L172.902 40.9616L173.901 41L174.9 41.0384L175.446 26.85L174.447 26.8116ZM173.901 41V40H164.117V41V42H173.901V41ZM164.117 41L165.115 41.0612L166.908 11.8268L165.91 11.7656L164.912 11.7044L163.119 40.9388L164.117 41ZM165.91 11.7656V12.7656H178.111V11.7656V10.7656H165.91V11.7656ZM178.111 11.7656L177.139 12.0021L180.764 26.8922L181.736 26.6556L182.707 26.4191L179.082 11.529L178.111 11.7656ZM181.736 26.6556V27.6556H182.087V26.6556V25.6556H181.736V26.6556ZM182.087 26.6556L183.058 26.8922L186.683 12.0021L185.712 11.7656L184.74 11.529L181.115 26.4191L182.087 26.6556ZM185.712 11.7656V12.7656H197.951V11.7656V10.7656H185.712V11.7656ZM197.951 11.7656L196.953 11.8255L198.707 41.0599L199.705 41L200.703 40.9401L198.949 11.7057L197.951 11.7656ZM199.705 41V40H189.921V41V42H199.705V41ZM189.921 41L190.921 40.9616L190.375 26.7731L189.376 26.8116L188.376 26.85L188.922 41.0384L189.921 41ZM189.376 26.8116V25.8116H189.064V26.8116V27.8116H189.376V26.8116ZM189.064 26.8116L188.094 26.5665L184.508 40.755L185.478 41L186.447 41.245L190.033 27.0566L189.064 26.8116ZM185.478 41V40H178.345V41V42H185.478V41ZM178.345 41L179.313 40.7525L175.688 26.564L174.719 26.8116L173.751 27.0591L177.376 41.2475L178.345 41ZM174.719 26.8116V25.8116H174.447V26.8116V27.8116H174.719V26.8116Z" fill="white" mask="url(#path-2-inside-1_1_567)"/>
</g>
</g>
<use xlink:href="#pattern0_1_567_inner" transform="translate(-115.5 55)"/>
<use xlink:href="#pattern0_1_567_inner" transform="translate(115.5 55)"/>
</pattern><linearGradient id="paint0_linear_1_567" x1="114.757" y1="5" x2="114.757" y2="50.8818" gradientUnits="userSpaceOnUse">
<stop stop-color="white"/>
<stop offset="1" stop-color="#BABABA"/>
</linearGradient>
</defs>
</svg>
