<svg width="54" height="61" viewBox="0 0 54 61" fill="none" xmlns="http://www.w3.org/2000/svg">
<path d="M10.3704 21.9259H12.7407V24.2963H10.3704V21.9259ZM12.7407 21.9259H15.1111V24.2963H12.7407V21.9259ZM15.1111 21.9259H17.4815V24.2963H15.1111V21.9259ZM15.1111 24.2963H17.4815V26.6667H15.1111V24.2963ZM12.7407 24.2963H15.1111V26.6667H12.7407V24.2963ZM10.3704 24.2963H12.7407V26.6667H10.3704V24.2963ZM10.3704 26.6667H12.7407V29.037H10.3704V26.6667ZM12.7407 26.6667H15.1111V29.037H12.7407V26.6667ZM15.1111 26.6667H17.4815V29.037H15.1111V26.6667ZM17.4815 26.6667H19.8519V29.037H17.4815V26.6667ZM17.4815 29.037H19.8519V31.4074H17.4815V29.037ZM15.1111 29.037H17.4815V31.4074H15.1111V29.037ZM12.7407 29.037H15.1111V31.4074H12.7407V29.037ZM19.8519 29.037H22.2222V31.4074H19.8519V29.037ZM22.2222 29.037H24.5926V31.4074H22.2222V29.037ZM24.5926 29.037H26.963V31.4074H24.5926V29.037ZM24.5926 31.4074H26.963V33.7778H24.5926V31.4074ZM26.963 31.4074H29.3333V33.7778H26.963V31.4074ZM29.3333 29.037H31.7037V31.4074H29.3333V29.037ZM26.963 29.037H29.3333V31.4074H26.963V29.037ZM26.963 26.6667H29.3333V29.037H26.963V26.6667ZM24.5926 26.6667H26.963V29.037H24.5926V26.6667ZM29.3333 26.6667H31.7037V29.037H29.3333V26.6667ZM31.7037 26.6667H34.0741V29.037H31.7037V26.6667ZM31.7037 24.2963H34.0741V26.6667H31.7037V24.2963ZM31.7037 21.9259H34.0741V24.2963H31.7037V21.9259ZM29.3333 21.9259H31.7037V24.2963H29.3333V21.9259ZM26.963 21.9259H29.3333V24.2963H26.963V21.9259ZM26.963 24.2963H29.3333V26.6667H26.963V24.2963ZM29.3333 24.2963H31.7037V26.6667H29.3333V24.2963ZM15.1111 31.4074H17.4815V33.7778H15.1111V31.4074ZM17.4815 31.4074H19.8519V33.7778H17.4815V31.4074ZM19.8519 31.4074H22.2222V33.7778H19.8519V31.4074ZM22.2222 31.4074H24.5926V33.7778H22.2222V31.4074ZM24.5926 33.7778H26.963V36.1481H24.5926V33.7778ZM22.2222 33.7778H24.5926V36.1481H22.2222V33.7778ZM19.8519 33.7778H22.2222V36.1481H19.8519V33.7778ZM17.4815 33.7778H19.8519V36.1481H17.4815V33.7778ZM17.4815 36.1481H19.8519V38.5185H17.4815V36.1481ZM15.1111 36.1481H17.4815V38.5185H15.1111V36.1481ZM19.8519 36.1481H22.2222V38.5185H19.8519V36.1481ZM22.2222 36.1481H24.5926V38.5185H22.2222V36.1481ZM24.5926 38.5185H26.963V40.8889H24.5926V38.5185ZM26.963 38.5185H29.3333V40.8889H26.963V38.5185ZM26.963 36.1481H29.3333V38.5185H26.963V36.1481ZM24.5926 36.1481H26.963V38.5185H24.5926V36.1481ZM22.2222 38.5185H24.5926V40.8889H22.2222V38.5185ZM24.5926 40.8889H26.963V43.2593H24.5926V40.8889ZM26.963 40.8889H29.3333V43.2593H26.963V40.8889ZM29.3333 38.5185H31.7037V40.8889H29.3333V38.5185ZM31.7037 45.6296H34.0741V48H31.7037V45.6296ZM31.7037 43.2593H34.0741V45.6296H31.7037V43.2593ZM29.3333 43.2593H31.7037V45.6296H29.3333V43.2593ZM29.3333 40.8889H31.7037V43.2593H29.3333V40.8889ZM31.7037 40.8889H34.0741V43.2593H31.7037V40.8889ZM29.3333 45.6296H31.7037V48H29.3333V45.6296ZM26.963 45.6296H29.3333V48H26.963V45.6296ZM26.963 43.2593H29.3333V45.6296H26.963V43.2593ZM19.8519 38.5185H22.2222V40.8889H19.8519V38.5185ZM17.4815 38.5185H19.8519V40.8889H17.4815V38.5185ZM15.1111 38.5185H17.4815V40.8889H15.1111V38.5185ZM12.7407 38.5185H15.1111V40.8889H12.7407V38.5185ZM12.7407 40.8889H15.1111V43.2593H12.7407V40.8889ZM15.1111 40.8889H17.4815V43.2593H15.1111V40.8889ZM17.4815 40.8889H19.8519V43.2593H17.4815V40.8889ZM10.3704 40.8889H12.7407V43.2593H10.3704V40.8889ZM10.3704 43.2593H12.7407V45.6296H10.3704V43.2593ZM10.3704 45.6296H12.7407V48H10.3704V45.6296ZM12.7407 45.6296H15.1111V48H12.7407V45.6296ZM15.1111 45.6296H17.4815V48H15.1111V45.6296ZM15.1111 43.2593H17.4815V45.6296H15.1111V43.2593ZM12.7407 43.2593H15.1111V45.6296H12.7407V43.2593Z" fill="url(#paint0_linear_1_716)"/>
<defs>
<linearGradient id="paint0_linear_1_716" x1="8" y1="30.3333" x2="53.5" y2="30.3333" gradientUnits="userSpaceOnUse">
<stop stop-color="#6180FF"/>
<stop offset="1" stop-color="#A470FF"/>
</linearGradient>
</defs>
</svg>
