<svg width="103" height="72" viewBox="0 0 103 72" fill="none" xmlns="http://www.w3.org/2000/svg">
<rect x="0.548446" y="3.05626" width="101.097" height="68.294" rx="1.27971" fill="url(#paint0_radial_1_120)" stroke="url(#paint1_linear_1_120)" stroke-width="1.09689"/>
<path d="M16.3588 17.029H19.1897V19.86H16.3588V17.029ZM19.1897 17.029H22.0206V19.86H19.1897V17.029ZM19.1897 19.86H22.0206V22.6909H19.1897V19.86ZM19.1897 22.6909H22.0206V25.5218H19.1897V22.6909ZM16.3588 22.6909H19.1897V25.5218H16.3588V22.6909ZM16.3588 19.86H19.1897V22.6909H16.3588V19.86ZM22.0206 19.86H24.8515V22.6909H22.0206V19.86ZM24.8515 19.86H27.6825V22.6909H24.8515V19.86ZM24.8515 22.6909H27.6825V25.5218H24.8515V22.6909ZM24.8515 25.5218H27.6825V28.3527H24.8515V25.5218ZM22.0206 25.5218H24.8515V28.3527H22.0206V25.5218ZM22.0206 22.6909H24.8515V25.5218H22.0206V22.6909ZM27.6825 22.6909H30.5134V25.5218H27.6825V22.6909ZM30.5134 22.6909H33.3443V25.5218H30.5134V22.6909ZM30.5134 25.5218H33.3443V28.3527H30.5134V25.5218ZM30.5134 28.3527H33.3443V31.1836H30.5134V28.3527ZM27.6825 28.3527H30.5134V31.1836H27.6825V28.3527ZM27.6825 25.5218H30.5134V28.3527H27.6825V25.5218ZM41.837 28.3527H44.6679V31.1836H41.837V28.3527ZM39.0061 31.1836H41.837V34.0145H39.0061V31.1836ZM39.0061 34.0145H41.837V36.8454H39.0061V34.0145ZM39.0061 28.3527H41.837V31.1836H39.0061V28.3527ZM41.837 31.1836H44.6679V34.0145H41.837V31.1836ZM41.837 34.0145H44.6679V36.8454H41.837V34.0145ZM36.1752 34.0145H39.0061V36.8454H36.1752V34.0145ZM33.3443 34.0145H36.1752V36.8454H33.3443V34.0145ZM33.3443 31.1836H36.1752V34.0145H33.3443V31.1836ZM36.1752 31.1836H39.0061V34.0145H36.1752V31.1836ZM36.1752 28.3527H39.0061V31.1836H36.1752V28.3527ZM36.1752 25.5218H39.0061V28.3527H36.1752V25.5218ZM33.3443 25.5218H36.1752V28.3527H33.3443V25.5218ZM33.3443 28.3527H36.1752V31.1836H33.3443V28.3527ZM30.5134 31.1836H33.3443V34.0145H30.5134V31.1836ZM30.5134 34.0145H33.3443V36.8454H30.5134V34.0145ZM27.6825 34.0145H30.5134V36.8454H27.6825V34.0145ZM30.5134 36.8454H33.3443V39.6763H30.5134V36.8454ZM33.3443 36.8454H36.1752V39.6763H33.3443V36.8454ZM36.1752 36.8454H39.0061V39.6763H36.1752V36.8454ZM30.5134 39.6763H33.3443V42.5073H30.5134V39.6763ZM27.6825 39.6763H30.5134V42.5073H27.6825V39.6763ZM24.8515 39.6763H27.6825V42.5073H24.8515V39.6763ZM24.8515 36.8454H27.6825V39.6763H24.8515V36.8454ZM27.6825 36.8454H30.5134V39.6763H27.6825V36.8454ZM22.0206 36.8454H24.8515V39.6763H22.0206V36.8454ZM22.0206 39.6763H24.8515V42.5073H22.0206V39.6763ZM22.0206 42.5073H24.8515V45.3382H22.0206V42.5073ZM24.8515 42.5073H27.6825V45.3382H24.8515V42.5073ZM19.1897 42.5073H22.0206V45.3382H19.1897V42.5073ZM19.1897 39.6763H22.0206V42.5073H19.1897V39.6763ZM16.3588 39.6763H19.1897V42.5073H16.3588V39.6763ZM16.3588 42.5073H19.1897V45.3382H16.3588V42.5073ZM16.3588 45.3382H19.1897V48.1691H16.3588V45.3382ZM19.1897 45.3382H22.0206V48.1691H19.1897V45.3382ZM50.3215 51H53.1524V53.8309H50.3215V51ZM53.1524 51H55.9833V53.8309H53.1524V51ZM55.9833 51H58.8142V53.8309H55.9833V51ZM58.8142 51H61.6451V53.8309H58.8142V51ZM61.6451 51H64.476V53.8309H61.6451V51ZM64.476 51H67.3069V53.8309H64.476V51ZM67.3069 51H70.1379V53.8309H67.3069V51ZM70.1379 51H72.9688V53.8309H70.1379V51ZM72.9688 51H75.7997V53.8309H72.9688V51ZM75.7997 51H78.6306V53.8309H75.7997V51ZM75.7997 53.8309H78.6306V56.6618H75.7997V53.8309ZM72.9688 53.8309H75.7997V56.6618H72.9688V53.8309ZM70.1379 53.8309H72.9688V56.6618H70.1379V53.8309ZM67.3069 53.8309H70.1379V56.6618H67.3069V53.8309ZM64.476 53.8309H67.3069V56.6618H64.476V53.8309ZM61.6451 53.8309H64.476V56.6618H61.6451V53.8309ZM58.8142 53.8309H61.6451V56.6618H58.8142V53.8309ZM55.9833 53.8309H58.8142V56.6618H55.9833V53.8309ZM53.1524 53.8309H55.9833V56.6618H53.1524V53.8309ZM50.3215 53.8309H53.1524V56.6618H50.3215V53.8309ZM50.3215 56.6618H53.1524V59.4927H50.3215V56.6618ZM53.1524 56.6618H55.9833V59.4927H53.1524V56.6618ZM55.9833 56.6618H58.8142V59.4927H55.9833V56.6618ZM58.8142 56.6618H61.6451V59.4927H58.8142V56.6618ZM61.6451 56.6618H64.476V59.4927H61.6451V56.6618ZM64.476 56.6618H67.3069V59.4927H64.476V56.6618ZM67.3069 56.6618H70.1379V59.4927H67.3069V56.6618ZM70.1379 56.6618H72.9688V59.4927H70.1379V56.6618ZM72.9688 56.6618H75.7997V59.4927H72.9688V56.6618ZM75.7997 56.6618H78.6306V59.4927H75.7997V56.6618Z" fill="url(#paint2_linear_1_120)"/>
<defs>
<radialGradient id="paint0_radial_1_120" cx="0" cy="0" r="1" gradientUnits="userSpaceOnUse" gradientTransform="translate(51.0969 37.2032) scale(51.0969 34.6954)">
<stop stop-color="#0E1431"/>
<stop offset="1" stop-color="#12193C"/>
</radialGradient>
<linearGradient id="paint1_linear_1_120" x1="0" y1="37.2032" x2="102.194" y2="37.2032" gradientUnits="userSpaceOnUse">
<stop stop-color="#D167FF"/>
<stop offset="1" stop-color="#62B8FF"/>
</linearGradient>
<linearGradient id="paint2_linear_1_120" x1="13.5279" y1="29.4522" x2="84.5596" y2="29.4522" gradientUnits="userSpaceOnUse">
<stop stop-color="#D167FF"/>
<stop offset="1" stop-color="#62B8FF"/>
</linearGradient>
</defs>
</svg>
