<svg width="559" height="380" viewBox="0 0 559 380" fill="none" xmlns="http://www.w3.org/2000/svg">
<rect width="559" height="379.568" rx="10" fill="url(#paint0_radial_209_111)"/>
<path d="M89.4851 77.5629H104.97V93.048H89.4851V77.5629ZM104.97 77.5629H120.455V93.048H104.97V77.5629ZM104.97 93.048H120.455V108.533H104.97V93.048ZM104.97 108.533H120.455V124.018H104.97V108.533ZM89.4851 108.533H104.97V124.018H89.4851V108.533ZM89.4851 93.048H104.97V108.533H89.4851V93.048ZM120.455 93.048H135.94V108.533H120.455V93.048ZM135.94 93.048H151.425V108.533H135.94V93.048ZM135.94 108.533H151.425V124.018H135.94V108.533ZM135.94 124.018H151.425V139.503H135.94V124.018ZM120.455 124.018H135.94V139.503H120.455V124.018ZM120.455 108.533H135.94V124.018H120.455V108.533ZM151.425 108.533H166.911V124.018H151.425V108.533ZM166.911 108.533H182.396V124.018H166.911V108.533ZM166.911 124.018H182.396V139.503H166.911V124.018ZM166.911 139.503H182.396V154.988H166.911V139.503ZM151.425 139.503H166.911V154.988H151.425V139.503ZM151.425 124.018H166.911V139.503H151.425V124.018ZM228.851 139.503H244.336V154.988H228.851V139.503ZM213.366 154.988H228.851V170.473H213.366V154.988ZM213.366 170.473H228.851V185.959H213.366V170.473ZM213.366 139.503H228.851V154.988H213.366V139.503ZM228.851 154.988H244.336V170.473H228.851V154.988ZM228.851 170.473H244.336V185.959H228.851V170.473ZM197.881 170.473H213.366V185.959H197.881V170.473ZM182.396 170.473H197.881V185.959H182.396V170.473ZM182.396 154.988H197.881V170.473H182.396V154.988ZM197.881 154.988H213.366V170.473H197.881V154.988ZM197.881 139.503H213.366V154.988H197.881V139.503ZM197.881 124.018H213.366V139.503H197.881V124.018ZM182.396 124.018H197.881V139.503H182.396V124.018ZM182.396 139.503H197.881V154.988H182.396V139.503ZM166.911 154.988H182.396V170.473H166.911V154.988ZM166.911 170.473H182.396V185.959H166.911V170.473ZM151.425 170.473H166.911V185.959H151.425V170.473ZM166.911 185.959H182.396V201.444H166.911V185.959ZM182.396 185.959H197.881V201.444H182.396V185.959ZM197.881 185.959H213.366V201.444H197.881V185.959ZM166.911 201.444H182.396V216.929H166.911V201.444ZM151.425 201.444H166.911V216.929H151.425V201.444ZM135.94 201.444H151.425V216.929H135.94V201.444ZM135.94 185.959H151.425V201.444H135.94V185.959ZM151.425 185.959H166.911V201.444H151.425V185.959ZM120.455 185.959H135.94V201.444H120.455V185.959ZM120.455 201.444H135.94V216.929H120.455V201.444ZM120.455 216.929H135.94V232.414H120.455V216.929ZM135.94 216.929H151.425V232.414H135.94V216.929ZM104.97 216.929H120.455V232.414H104.97V216.929ZM104.97 201.444H120.455V216.929H104.97V201.444ZM89.4851 201.444H104.97V216.929H89.4851V201.444ZM89.4851 216.929H104.97V232.414H89.4851V216.929ZM89.4851 232.414H104.97V247.899H89.4851V232.414ZM104.97 232.414H120.455V247.899H104.97V232.414ZM275.261 263.384H290.746V278.869H275.261V263.384ZM290.746 263.384H306.231V278.869H290.746V263.384ZM306.231 263.384H321.716V278.869H306.231V263.384ZM321.716 263.384H337.201V278.869H321.716V263.384ZM337.201 263.384H352.686V278.869H337.201V263.384ZM352.686 263.384H368.171V278.869H352.686V263.384ZM368.171 263.384H383.656V278.869H368.171V263.384ZM383.656 263.384H399.142V278.869H383.656V263.384ZM399.142 263.384H414.627V278.869H399.142V263.384ZM414.627 263.384H430.112V278.869H414.627V263.384ZM414.627 278.869H430.112V294.354H414.627V278.869ZM399.142 278.869H414.627V294.354H399.142V278.869ZM383.656 278.869H399.142V294.354H383.656V278.869ZM368.171 278.869H383.656V294.354H368.171V278.869ZM352.686 278.869H368.171V294.354H352.686V278.869ZM337.201 278.869H352.686V294.354H337.201V278.869ZM321.716 278.869H337.201V294.354H321.716V278.869ZM306.231 278.869H321.716V294.354H306.231V278.869ZM290.746 278.869H306.231V294.354H290.746V278.869ZM275.261 278.869H290.746V294.354H275.261V278.869ZM275.261 294.354H290.746V309.839H275.261V294.354ZM290.746 294.354H306.231V309.839H290.746V294.354ZM306.231 294.354H321.716V309.839H306.231V294.354ZM321.716 294.354H337.201V309.839H321.716V294.354ZM337.201 294.354H352.686V309.839H337.201V294.354ZM352.686 294.354H368.171V309.839H352.686V294.354ZM368.171 294.354H383.656V309.839H368.171V294.354ZM383.656 294.354H399.142V309.839H383.656V294.354ZM399.142 294.354H414.627V309.839H399.142V294.354ZM414.627 294.354H430.112V309.839H414.627V294.354Z" fill="url(#paint1_linear_209_111)"/>
<defs>
<radialGradient id="paint0_radial_209_111" cx="0" cy="0" r="1" gradientUnits="userSpaceOnUse" gradientTransform="translate(279.5 189.784) scale(279.5 189.784)">
<stop stop-color="#0E1431"/>
<stop offset="1" stop-color="#12193C"/>
</radialGradient>
<linearGradient id="paint1_linear_209_111" x1="74" y1="147.384" x2="463" y2="147.384" gradientUnits="userSpaceOnUse">
<stop stop-color="#D167FF"/>
<stop offset="1" stop-color="#62B8FF"/>
</linearGradient>
</defs>
</svg>
