<svg width="111" height="70" viewBox="0 0 111 70" fill="none" xmlns="http://www.w3.org/2000/svg">
<rect y="13.8735" width="79.9691" height="54.3" fill="url(#paint0_linear_1_571)"/>
<path d="M17.0046 25.5191H19.0446V27.5592H17.0046V25.5191ZM19.0446 25.5191H21.0847V27.5592H19.0446V25.5191ZM19.0446 27.5592H21.0847V29.5993H19.0446V27.5592ZM19.0446 29.5993H21.0847V31.6393H19.0446V29.5993ZM17.0046 29.5993H19.0446V31.6393H17.0046V29.5993ZM17.0046 27.5592H19.0446V29.5993H17.0046V27.5592ZM21.0847 27.5592H23.1248V29.5993H21.0847V27.5592ZM23.1248 27.5592H25.1648V29.5993H23.1248V27.5592ZM23.1248 29.5993H25.1648V31.6393H23.1248V29.5993ZM23.1248 31.6393H25.1648V33.6794H23.1248V31.6393ZM21.0847 31.6393H23.1248V33.6794H21.0847V31.6393ZM21.0847 29.5993H23.1248V31.6393H21.0847V29.5993ZM25.1648 29.5993H27.2049V31.6393H25.1648V29.5993ZM27.2049 29.5993H29.245V31.6393H27.2049V29.5993ZM27.2049 31.6393H29.245V33.6794H27.2049V31.6393ZM27.2049 33.6794H29.245V35.7195H27.2049V33.6794ZM25.1648 33.6794H27.2049V35.7195H25.1648V33.6794ZM25.1648 31.6393H27.2049V33.6794H25.1648V31.6393ZM35.3652 33.6794H37.4053V35.7195H35.3652V33.6794ZM33.3251 35.7195H35.3652V37.7596H33.3251V35.7195ZM33.3251 37.7596H35.3652V39.7996H33.3251V37.7596ZM33.3251 33.6794H35.3652V35.7195H33.3251V33.6794ZM35.3652 35.7195H37.4053V37.7596H35.3652V35.7195ZM35.3652 37.7596H37.4053V39.7996H35.3652V37.7596ZM31.2851 37.7596H33.3251V39.7996H31.2851V37.7596ZM29.245 37.7596H31.2851V39.7996H29.245V37.7596ZM29.245 35.7195H31.2851V37.7596H29.245V35.7195ZM31.2851 35.7195H33.3251V37.7596H31.2851V35.7195ZM31.2851 33.6794H33.3251V35.7195H31.2851V33.6794ZM31.2851 31.6393H33.3251V33.6794H31.2851V31.6393ZM29.245 31.6393H31.2851V33.6794H29.245V31.6393ZM29.245 33.6794H31.2851V35.7195H29.245V33.6794ZM27.2049 35.7195H29.245V37.7596H27.2049V35.7195ZM27.2049 37.7596H29.245V39.7996H27.2049V37.7596ZM25.1648 37.7596H27.2049V39.7996H25.1648V37.7596ZM27.2049 39.7996H29.245V41.8397H27.2049V39.7996ZM29.245 39.7996H31.2851V41.8397H29.245V39.7996ZM31.2851 39.7996H33.3251V41.8397H31.2851V39.7996ZM27.2049 41.8397H29.245V43.8798H27.2049V41.8397ZM25.1648 41.8397H27.2049V43.8798H25.1648V41.8397ZM23.1248 41.8397H25.1648V43.8798H23.1248V41.8397ZM23.1248 39.7996H25.1648V41.8397H23.1248V39.7996ZM25.1648 39.7996H27.2049V41.8397H25.1648V39.7996ZM21.0847 39.7996H23.1248V41.8397H21.0847V39.7996ZM21.0847 41.8397H23.1248V43.8798H21.0847V41.8397ZM21.0847 43.8798H23.1248V45.9199H21.0847V43.8798ZM23.1248 43.8798H25.1648V45.9199H23.1248V43.8798ZM19.0446 43.8798H21.0847V45.9199H19.0446V43.8798ZM19.0446 41.8397H21.0847V43.8798H19.0446V41.8397ZM17.0046 41.8397H19.0446V43.8798H17.0046V41.8397ZM17.0046 43.8798H19.0446V45.9199H17.0046V43.8798ZM17.0046 45.9199H19.0446V47.9599H17.0046V45.9199ZM19.0446 45.9199H21.0847V47.9599H19.0446V45.9199ZM41.4794 50H43.5195V52.0401H41.4794V50ZM43.5195 50H45.5596V52.0401H43.5195V50ZM45.5596 50H47.5997V52.0401H45.5596V50ZM47.5997 50H49.6397V52.0401H47.5997V50ZM49.6397 50H51.6798V52.0401H49.6397V50ZM51.6798 50H53.7199V52.0401H51.6798V50ZM53.7199 50H55.76V52.0401H53.7199V50ZM55.76 50H57.8V52.0401H55.76V50ZM57.8 50H59.8401V52.0401H57.8V50ZM59.8401 50H61.8802V52.0401H59.8401V50ZM59.8401 52.0401H61.8802V54.0801H59.8401V52.0401ZM57.8 52.0401H59.8401V54.0801H57.8V52.0401ZM55.76 52.0401H57.8V54.0801H55.76V52.0401ZM53.7199 52.0401H55.76V54.0801H53.7199V52.0401ZM51.6798 52.0401H53.7199V54.0801H51.6798V52.0401ZM49.6397 52.0401H51.6798V54.0801H49.6397V52.0401ZM47.5997 52.0401H49.6397V54.0801H47.5997V52.0401ZM45.5596 52.0401H47.5997V54.0801H45.5596V52.0401ZM43.5195 52.0401H45.5596V54.0801H43.5195V52.0401ZM41.4794 52.0401H43.5195V54.0801H41.4794V52.0401ZM41.4794 54.0801H43.5195V56.1202H41.4794V54.0801ZM43.5195 54.0801H45.5596V56.1202H43.5195V54.0801ZM45.5596 54.0801H47.5997V56.1202H45.5596V54.0801ZM47.5997 54.0801H49.6397V56.1202H47.5997V54.0801ZM49.6397 54.0801H51.6798V56.1202H49.6397V54.0801ZM51.6798 54.0801H53.7199V56.1202H51.6798V54.0801ZM53.7199 54.0801H55.76V56.1202H53.7199V54.0801ZM55.76 54.0801H57.8V56.1202H55.76V54.0801ZM57.8 54.0801H59.8401V56.1202H57.8V54.0801ZM59.8401 54.0801H61.8802V56.1202H59.8401V54.0801Z" fill="#0C062E"/>
<defs>
<linearGradient id="paint0_linear_1_571" x1="0" y1="41.0236" x2="79.9691" y2="41.0236" gradientUnits="userSpaceOnUse">
<stop stop-color="#D167FF"/>
<stop offset="1" stop-color="#62B8FF"/>
</linearGradient>
</defs>
</svg>
