<svg width="80" height="55" viewBox="0 0 80 55" fill="none" xmlns="http://www.w3.org/2000/svg">
<rect width="79.9691" height="54.3" fill="url(#paint0_linear_209_93)"/>
<path d="M17.0398 11.6456H19.0799V13.6857H17.0398V11.6456ZM19.0799 11.6456H21.12V13.6857H19.0799V11.6456ZM19.0799 13.6857H21.12V15.7257H19.0799V13.6857ZM19.0799 15.7257H21.12V17.7658H19.0799V15.7257ZM17.0398 15.7257H19.0799V17.7658H17.0398V15.7257ZM17.0398 13.6857H19.0799V15.7257H17.0398V13.6857ZM21.12 13.6857H23.16V15.7257H21.12V13.6857ZM23.16 13.6857H25.2001V15.7257H23.16V13.6857ZM23.16 15.7257H25.2001V17.7658H23.16V15.7257ZM23.16 17.7658H25.2001V19.8059H23.16V17.7658ZM21.12 17.7658H23.16V19.8059H21.12V17.7658ZM21.12 15.7257H23.16V17.7658H21.12V15.7257ZM25.2001 15.7257H27.2402V17.7658H25.2001V15.7257ZM27.2402 15.7257H29.2803V17.7658H27.2402V15.7257ZM27.2402 17.7658H29.2803V19.8059H27.2402V17.7658ZM27.2402 19.8059H29.2803V21.846H27.2402V19.8059ZM25.2001 19.8059H27.2402V21.846H25.2001V19.8059ZM25.2001 17.7658H27.2402V19.8059H25.2001V17.7658ZM35.4005 19.8059H37.4406V21.846H35.4005V19.8059ZM33.3604 21.846H35.4005V23.886H33.3604V21.846ZM33.3604 23.886H35.4005V25.9261H33.3604V23.886ZM33.3604 19.8059H35.4005V21.846H33.3604V19.8059ZM35.4005 21.846H37.4406V23.886H35.4005V21.846ZM35.4005 23.886H37.4406V25.9261H35.4005V23.886ZM31.3203 23.886H33.3604V25.9261H31.3203V23.886ZM29.2803 23.886H31.3203V25.9261H29.2803V23.886ZM29.2803 21.846H31.3203V23.886H29.2803V21.846ZM31.3203 21.846H33.3604V23.886H31.3203V21.846ZM31.3203 19.8059H33.3604V21.846H31.3203V19.8059ZM31.3203 17.7658H33.3604V19.8059H31.3203V17.7658ZM29.2803 17.7658H31.3203V19.8059H29.2803V17.7658ZM29.2803 19.8059H31.3203V21.846H29.2803V19.8059ZM27.2402 21.846H29.2803V23.886H27.2402V21.846ZM27.2402 23.886H29.2803V25.9261H27.2402V23.886ZM25.2001 23.886H27.2402V25.9261H25.2001V23.886ZM27.2402 25.9261H29.2803V27.9662H27.2402V25.9261ZM29.2803 25.9261H31.3203V27.9662H29.2803V25.9261ZM31.3203 25.9261H33.3604V27.9662H31.3203V25.9261ZM27.2402 27.9662H29.2803V30.0062H27.2402V27.9662ZM25.2001 27.9662H27.2402V30.0062H25.2001V27.9662ZM23.16 27.9662H25.2001V30.0062H23.16V27.9662ZM23.16 25.9261H25.2001V27.9662H23.16V25.9261ZM25.2001 25.9261H27.2402V27.9662H25.2001V25.9261ZM21.12 25.9261H23.16V27.9662H21.12V25.9261ZM21.12 27.9662H23.16V30.0062H21.12V27.9662ZM21.12 30.0062H23.16V32.0463H21.12V30.0062ZM23.16 30.0062H25.2001V32.0463H23.16V30.0062ZM19.0799 30.0062H21.12V32.0463H19.0799V30.0062ZM19.0799 27.9662H21.12V30.0062H19.0799V27.9662ZM17.0398 27.9662H19.0799V30.0062H17.0398V27.9662ZM17.0398 30.0062H19.0799V32.0463H17.0398V30.0062ZM17.0398 32.0463H19.0799V34.0864H17.0398V32.0463ZM19.0799 32.0463H21.12V34.0864H19.0799V32.0463ZM41.5147 36.1265H43.5548V38.1665H41.5147V36.1265ZM43.5548 36.1265H45.5949V38.1665H43.5548V36.1265ZM45.5949 36.1265H47.6349V38.1665H45.5949V36.1265ZM47.6349 36.1265H49.675V38.1665H47.6349V36.1265ZM49.675 36.1265H51.7151V38.1665H49.675V36.1265ZM51.7151 36.1265H53.7552V38.1665H51.7151V36.1265ZM53.7552 36.1265H55.7952V38.1665H53.7552V36.1265ZM55.7952 36.1265H57.8353V38.1665H55.7952V36.1265ZM57.8353 36.1265H59.8754V38.1665H57.8353V36.1265ZM59.8754 36.1265H61.9155V38.1665H59.8754V36.1265ZM59.8754 38.1665H61.9155V40.2066H59.8754V38.1665ZM57.8353 38.1665H59.8754V40.2066H57.8353V38.1665ZM55.7952 38.1665H57.8353V40.2066H55.7952V38.1665ZM53.7552 38.1665H55.7952V40.2066H53.7552V38.1665ZM51.7151 38.1665H53.7552V40.2066H51.7151V38.1665ZM49.675 38.1665H51.7151V40.2066H49.675V38.1665ZM47.6349 38.1665H49.675V40.2066H47.6349V38.1665ZM45.5949 38.1665H47.6349V40.2066H45.5949V38.1665ZM43.5548 38.1665H45.5949V40.2066H43.5548V38.1665ZM41.5147 38.1665H43.5548V40.2066H41.5147V38.1665ZM41.5147 40.2066H43.5548V42.2467H41.5147V40.2066ZM43.5548 40.2066H45.5949V42.2467H43.5548V40.2066ZM45.5949 40.2066H47.6349V42.2467H45.5949V40.2066ZM47.6349 40.2066H49.675V42.2467H47.6349V40.2066ZM49.675 40.2066H51.7151V42.2467H49.675V40.2066ZM51.7151 40.2066H53.7552V42.2467H51.7151V40.2066ZM53.7552 40.2066H55.7952V42.2467H53.7552V40.2066ZM55.7952 40.2066H57.8353V42.2467H55.7952V40.2066ZM57.8353 40.2066H59.8754V42.2467H57.8353V40.2066ZM59.8754 40.2066H61.9155V42.2467H59.8754V40.2066Z" fill="#0C062E"/>
<defs>
<linearGradient id="paint0_linear_209_93" x1="0" y1="27.15" x2="79.9691" y2="27.15" gradientUnits="userSpaceOnUse">
<stop stop-color="#D167FF"/>
<stop offset="1" stop-color="#62B8FF"/>
</linearGradient>
</defs>
</svg>
