<svg width="28" height="28" viewBox="0 0 28 28" fill="none" xmlns="http://www.w3.org/2000/svg">
<path d="M10.2011 20.4021C7.34999 20.4021 4.93731 19.4144 2.96302 17.4391C0.988719 15.4638 0.00104709 13.0511 8.30367e-07 10.2011C-0.00104543 7.35104 0.986626 4.93836 2.96302 2.96301C4.9394 0.987672 7.35209 0 10.2011 0C13.05 0 15.4632 0.987672 17.4407 2.96301C19.4181 4.93836 20.4053 7.35104 20.4021 10.2011C20.4021 11.3519 20.219 12.4374 19.8528 13.4575C19.4866 14.4777 18.9897 15.3801 18.3619 16.1648L28 25.9104C27.5821 26.3284 28 25.9104 27.5821 26.3284C27.1642 26.7463 27.034 26.8765 26.7463 27.1642C26.4585 27.4519 26.7463 27.1642 26.3284 27.5821C26.0721 27.8384 26.3284 27.5821 25.9104 28L16.1648 18.3619C15.3801 18.9897 14.4777 19.4866 13.4575 19.8528C12.4374 20.219 11.3519 20.4021 10.2011 20.4021ZM10.2011 17.2633C12.1628 17.2633 13.8305 16.577 15.2043 15.2043C16.578 13.8316 17.2644 12.1638 17.2633 10.2011C17.2623 8.23827 16.5759 6.57105 15.2043 5.1994C13.8326 3.82775 12.1649 3.14088 10.2011 3.13879C8.23722 3.13669 6.57 3.82357 5.1994 5.1994C3.8288 6.57524 3.14193 8.24245 3.13879 10.2011C3.13565 12.1597 3.82252 13.8274 5.1994 15.2043C6.57628 16.5812 8.2435 17.2675 10.2011 17.2633Z" fill="url(#paint0_linear_1_636)"/>
<defs>
<linearGradient id="paint0_linear_1_636" x1="0" y1="14" x2="28" y2="14" gradientUnits="userSpaceOnUse">
<stop stop-color="#D167FF"/>
<stop offset="1" stop-color="#62B8FF"/>
</linearGradient>
</defs>
</svg>
