<svg width="76" height="73" viewBox="0 0 76 73" fill="none" xmlns="http://www.w3.org/2000/svg">
<rect x="-2.14715" y="2.14715" width="68.7088" height="68.7088" rx="8.5886" transform="matrix(-1 0 0 1 70.8559 0)" fill="#060714" stroke="url(#paint0_linear_1_554)" stroke-width="4.2943"/>
<path d="M48.9868 24.0514H46.442V26.5962H48.9868V24.0514ZM46.442 24.0514H43.8972V26.5962H46.442V24.0514ZM46.442 26.5962H43.8972V29.1409H46.442V26.5962ZM46.442 29.1409H43.8972V31.6857H46.442V29.1409ZM48.9868 29.1409H46.442V31.6857H48.9868V29.1409ZM48.9868 26.5962H46.442V29.1409H48.9868V26.5962ZM43.8972 26.5962H41.3525V29.1409H43.8972V26.5962ZM41.3525 26.5962H38.8077V29.1409H41.3525V26.5962ZM41.3525 29.1409H38.8077V31.6857H41.3525V29.1409ZM41.3525 31.6857H38.8077V34.2305H41.3525V31.6857ZM43.8972 31.6857H41.3525V34.2305H43.8972V31.6857ZM43.8972 29.1409H41.3525V31.6857H43.8972V29.1409ZM38.8077 29.1409H36.2629V31.6857H38.8077V29.1409ZM36.2629 29.1409H33.7182V31.6857H36.2629V29.1409ZM36.2629 31.6857H33.7182V34.2305H36.2629V31.6857ZM36.2629 34.2305H33.7182V36.7752H36.2629V34.2305ZM38.8077 34.2305H36.2629V36.7752H38.8077V34.2305ZM38.8077 31.6857H36.2629V34.2305H38.8077V31.6857ZM26.0839 34.2305H23.5391V36.7752H26.0839V34.2305ZM28.6286 36.7752H26.0839V39.32H28.6286V36.7752ZM28.6286 39.32H26.0839V41.8648H28.6286V39.32ZM28.6286 34.2305H26.0839V36.7752H28.6286V34.2305ZM26.0839 36.7752H23.5391V39.32H26.0839V36.7752ZM26.0839 39.32H23.5391V41.8648H26.0839V39.32ZM31.1734 39.32H28.6286V41.8648H31.1734V39.32ZM33.7182 39.32H31.1734V41.8648H33.7182V39.32ZM33.7182 36.7752H31.1734V39.32H33.7182V36.7752ZM31.1734 36.7752H28.6286V39.32H31.1734V36.7752ZM31.1734 34.2305H28.6286V36.7752H31.1734V34.2305ZM31.1734 31.6857H28.6286V34.2305H31.1734V31.6857ZM33.7182 31.6857H31.1734V34.2305H33.7182V31.6857ZM33.7182 34.2305H31.1734V36.7752H33.7182V34.2305ZM36.2629 36.7752H33.7182V39.32H36.2629V36.7752ZM36.2629 39.32H33.7182V41.8648H36.2629V39.32ZM38.8077 39.32H36.2629V41.8648H38.8077V39.32ZM36.2629 41.8648H33.7182V44.4095H36.2629V41.8648ZM33.7182 41.8648H31.1734V44.4095H33.7182V41.8648ZM31.1734 41.8648H28.6286V44.4095H31.1734V41.8648ZM36.2629 44.4095H33.7182V46.9543H36.2629V44.4095ZM38.8077 44.4095H36.2629V46.9543H38.8077V44.4095ZM41.3525 44.4095H38.8077V46.9543H41.3525V44.4095ZM41.3525 41.8648H38.8077V44.4095H41.3525V41.8648ZM38.8077 41.8648H36.2629V44.4095H38.8077V41.8648ZM43.8972 41.8648H41.3525V44.4095H43.8972V41.8648ZM43.8972 44.4095H41.3525V46.9543H43.8972V44.4095ZM43.8972 46.9543H41.3525V49.4991H43.8972V46.9543ZM41.3525 46.9543H38.8077V49.4991H41.3525V46.9543ZM46.442 46.9543H43.8972V49.4991H46.442V46.9543ZM46.442 44.4095H43.8972V46.9543H46.442V44.4095ZM48.9868 44.4095H46.442V46.9543H48.9868V44.4095ZM48.9868 46.9543H46.442V49.4991H48.9868V46.9543ZM48.9868 49.4991H46.442V52.0439H48.9868V49.4991ZM46.442 49.4991H43.8972V52.0439H46.442V49.4991Z" fill="url(#paint1_linear_1_554)"/>
<defs>
<linearGradient id="paint0_linear_1_554" x1="0" y1="36.5015" x2="73.0031" y2="36.5015" gradientUnits="userSpaceOnUse">
<stop stop-color="#D167FF"/>
<stop offset="1" stop-color="#62B8FF"/>
</linearGradient>
<linearGradient id="paint1_linear_1_554" x1="51.5316" y1="35.5473" x2="-1.90735e-05" y2="35.5473" gradientUnits="userSpaceOnUse">
<stop stop-color="#D167FF"/>
<stop offset="1" stop-color="#62B8FF"/>
</linearGradient>
</defs>
</svg>
