<svg width="75" height="73" viewBox="0 0 75 73" fill="none" xmlns="http://www.w3.org/2000/svg">
<rect x="2.14715" y="2.14715" width="68.7088" height="68.7088" rx="8.5886" fill="#060714" stroke="url(#paint0_linear_1_551)" stroke-width="4.2943"/>
<path d="M25.0899 24.0514H27.6346V26.5962H25.0899V24.0514ZM27.6346 24.0514H30.1794V26.5962H27.6346V24.0514ZM27.6346 26.5962H30.1794V29.1409H27.6346V26.5962ZM27.6346 29.1409H30.1794V31.6857H27.6346V29.1409ZM25.0899 29.1409H27.6346V31.6857H25.0899V29.1409ZM25.0899 26.5962H27.6346V29.1409H25.0899V26.5962ZM30.1794 26.5962H32.7242V29.1409H30.1794V26.5962ZM32.7242 26.5962H35.2689V29.1409H32.7242V26.5962ZM32.7242 29.1409H35.2689V31.6857H32.7242V29.1409ZM32.7242 31.6857H35.2689V34.2305H32.7242V31.6857ZM30.1794 31.6857H32.7242V34.2305H30.1794V31.6857ZM30.1794 29.1409H32.7242V31.6857H30.1794V29.1409ZM35.2689 29.1409H37.8137V31.6857H35.2689V29.1409ZM37.8137 29.1409H40.3585V31.6857H37.8137V29.1409ZM37.8137 31.6857H40.3585V34.2305H37.8137V31.6857ZM37.8137 34.2305H40.3585V36.7752H37.8137V34.2305ZM35.2689 34.2305H37.8137V36.7752H35.2689V34.2305ZM35.2689 31.6857H37.8137V34.2305H35.2689V31.6857ZM47.9928 34.2305H50.5376V36.7752H47.9928V34.2305ZM45.448 36.7752H47.9928V39.32H45.448V36.7752ZM45.448 39.32H47.9928V41.8648H45.448V39.32ZM45.448 34.2305H47.9928V36.7752H45.448V34.2305ZM47.9928 36.7752H50.5376V39.32H47.9928V36.7752ZM47.9928 39.32H50.5376V41.8648H47.9928V39.32ZM42.9033 39.32H45.448V41.8648H42.9033V39.32ZM40.3585 39.32H42.9033V41.8648H40.3585V39.32ZM40.3585 36.7752H42.9033V39.32H40.3585V36.7752ZM42.9033 36.7752H45.448V39.32H42.9033V36.7752ZM42.9033 34.2305H45.448V36.7752H42.9033V34.2305ZM42.9033 31.6857H45.448V34.2305H42.9033V31.6857ZM40.3585 31.6857H42.9033V34.2305H40.3585V31.6857ZM40.3585 34.2305H42.9033V36.7752H40.3585V34.2305ZM37.8137 36.7752H40.3585V39.32H37.8137V36.7752ZM37.8137 39.32H40.3585V41.8648H37.8137V39.32ZM35.2689 39.32H37.8137V41.8648H35.2689V39.32ZM37.8137 41.8648H40.3585V44.4095H37.8137V41.8648ZM40.3585 41.8648H42.9033V44.4095H40.3585V41.8648ZM42.9033 41.8648H45.448V44.4095H42.9033V41.8648ZM37.8137 44.4095H40.3585V46.9543H37.8137V44.4095ZM35.2689 44.4095H37.8137V46.9543H35.2689V44.4095ZM32.7242 44.4095H35.2689V46.9543H32.7242V44.4095ZM32.7242 41.8648H35.2689V44.4095H32.7242V41.8648ZM35.2689 41.8648H37.8137V44.4095H35.2689V41.8648ZM30.1794 41.8648H32.7242V44.4095H30.1794V41.8648ZM30.1794 44.4095H32.7242V46.9543H30.1794V44.4095ZM30.1794 46.9543H32.7242V49.4991H30.1794V46.9543ZM32.7242 46.9543H35.2689V49.4991H32.7242V46.9543ZM27.6346 46.9543H30.1794V49.4991H27.6346V46.9543ZM27.6346 44.4095H30.1794V46.9543H27.6346V44.4095ZM25.0899 44.4095H27.6346V46.9543H25.0899V44.4095ZM25.0899 46.9543H27.6346V49.4991H25.0899V46.9543ZM25.0899 49.4991H27.6346V52.0439H25.0899V49.4991ZM27.6346 49.4991H30.1794V52.0439H27.6346V49.4991Z" fill="url(#paint1_linear_1_551)"/>
<defs>
<linearGradient id="paint0_linear_1_551" x1="0" y1="36.5015" x2="73.0031" y2="36.5015" gradientUnits="userSpaceOnUse">
<stop stop-color="#D167FF"/>
<stop offset="1" stop-color="#62B8FF"/>
</linearGradient>
<linearGradient id="paint1_linear_1_551" x1="22.5451" y1="35.5473" x2="74.0767" y2="35.5473" gradientUnits="userSpaceOnUse">
<stop stop-color="#D167FF"/>
<stop offset="1" stop-color="#62B8FF"/>
</linearGradient>
</defs>
</svg>
